<?xml version="1.0" encoding="UTF-8" standalone="no"?>
<svg
   xmlns:dc="http://purl.org/dc/elements/1.1/"
   xmlns:cc="http://creativecommons.org/ns#"
   xmlns:rdf="http://www.w3.org/1999/02/22-rdf-syntax-ns#"
   xmlns:svg="http://www.w3.org/2000/svg"
   xmlns="http://www.w3.org/2000/svg"
   viewBox="0 0 841.88977 595.27557"
   id="svg2"
   height="595.27557"
   width="841.88977"
   version="1.1">
  <metadata
     id="metadata16">
    <rdf:RDF>
      <cc:Work
         rdf:about="">
        <dc:format>image/svg+xml</dc:format>
        <dc:type
           rdf:resource="http://purl.org/dc/dcmitype/StillImage" />
      </cc:Work>
    </rdf:RDF>
  </metadata>
  <defs
     id="defs14" />
  <path
     id="path4"
     style="fill:#1b1918;fill-rule:evenodd"
     d="m 778.3112,386.662 4.9017,0 -6.6721,11.9414 0,7.2313 -4.5146,0 0,-7.2313 -6.8841,-11.9414 5.1113,0 4.0314,8.3009 4.0264,-8.3009 z m -17.9574,8.7625 0,10.4102 -3.3483,0 0,-2.0523 -0.0542,0 c -1.2773,1.9406 -3.1314,2.6032 -5.7697,2.6032 -8.2451,0 -9.3867,-6.5489 -9.3867,-10.1918 0,-3.8887 1.5213,-10.0777 10.0401,-10.0777 5.5231,0 7.8605,3.5065 8.3512,6.7648 l -4.7069,-0.002 c -0.0543,-0.7668 -0.5154,-3.0375 -3.6739,-3.0375 -5.2197,0 -5.168,5.395 -5.168,6.4893 0,1.1515 0.1061,6.3281 5.0324,6.3281 1.9602,0 4.1349,-1.0944 4.384,-3.7547 l -3.8119,0 0,-3.4791 8.1119,0 z m -29.0354,0.8239 c 0,-1.7272 -0.1924,-6.4075 -4.7908,-6.4075 -2.4755,0 -4.7636,1.3426 -4.7636,6.4075 0,5.0127 2.2881,6.4099 4.7636,6.4099 4.5713,0 4.7908,-4.7944 4.7908,-6.4099 z m -14.4216,0 c 0,-4.4644 2.1204,-10.1323 9.6308,-10.1323 6.5586,0 9.6333,4.3303 9.6333,10.1323 0,5.8068 -3.0747,10.1372 -9.6333,10.1372 -7.5079,0 -9.6308,-5.6704 -9.6308,-10.1372 z m -4.7908,9.5863 -13.3614,0 0,-19.1727 4.49,0 0,15.4478 8.8714,0 0,3.7249 z m -24.7354,-9.5863 c 0,-1.7272 -0.1899,-6.4075 -4.7932,-6.4075 -2.4755,0 -4.7612,1.3426 -4.7612,6.4075 0.003,5.0127 2.2857,6.4099 4.7612,6.4099 4.5762,0 4.7883,-4.7944 4.7932,-6.4099 z m -14.4191,0 c 0,-4.4644 2.1155,-10.1323 9.6259,-10.1323 6.5635,0 9.6357,4.3303 9.6357,10.1323 0.005,5.8068 -3.0746,10.1372 -9.6357,10.1372 -7.5079,0 -9.6284,-5.6704 -9.6259,-10.1372 z m -18.6995,-2.4072 0,11.9935 -4.49,0 0,-19.1727 4.5467,0 7.5104,11.9141 0.0789,0 0,-11.9141 4.4924,0 0,19.1727 -4.5713,0 -7.5104,-11.9935 -0.0567,0 z m -23.3448,11.9935 -4.4924,0 0,-19.1727 4.4924,0 0,7.204 6.9088,0 0,-7.204 4.4924,0 0,19.1727 -4.4924,0 0,-8.2463 -6.9088,0 0,8.2463 z m -10.5579,-6.7623 c -0.3033,2.8736 -1.9084,7.3132 -8.6569,7.3132 -4.8672,0 -9.3325,-2.2483 -9.3325,-9.7824 0.002,-10.1025 7.3477,-10.4871 9.1698,-10.4871 6.7509,0 8.4645,4.2435 8.5977,7.065 l -4.4061,0 c -0.4093,-3.2037 -2.9366,-3.3402 -3.9722,-3.3402 -1.006,0 -4.5466,0.1911 -4.5466,6.5985 0.002,3.6157 1.6347,6.2189 4.6822,6.2189 2.9391,0 3.8045,-2.1665 3.9993,-3.5859 l 4.4653,0 z m -24.5751,-4.7919 0,3.5312 -9.3054,0 0,4.2981 10.8316,0 0,3.7249 -15.3215,0 0,-19.1727 15.0478,0 0,3.7274 -10.5579,0 0,3.8911 9.3054,0 z m -35.4832,-3.8911 0,-3.7274 16.0045,0 0,3.7274 -5.7449,0 0,15.4453 -4.4924,0 0,-15.4453 -5.7672,0 z m -24.654,4.3775 0,3.7273 -7.8926,0 0,7.3405 -4.4875,0 0,-19.1727 13.8225,0 0,3.7274 -9.335,0 0,4.3775 7.8926,0 z m -23.7541,1.4815 c 0,-1.7272 -0.1899,-6.4075 -4.7908,-6.4075 -2.4755,0 -4.7611,1.3426 -4.7611,6.4075 0,5.0127 2.2856,6.4099 4.7611,6.4099 4.5713,0 4.7908,-4.7944 4.7908,-6.4099 z m -14.4216,0 c 0,-4.4644 2.1205,-10.1323 9.6308,-10.1323 6.5562,0 9.6333,4.3303 9.6333,10.1323 0.002,5.8068 -3.0771,10.1372 -9.6333,10.1372 -7.5103,0 -9.6308,-5.6704 -9.6308,-10.1372 z m 280.8499,-35.4989 4.9017,0 -6.6721,11.9388 0,7.2288 -4.5146,0 0,-7.2288 -6.8841,-11.9388 5.1113,0 4.0314,8.2959 4.0264,-8.2959 z m -32.5737,3.7199 0,-3.7199 16.002,0 0,3.7199 -5.7375,0 0,15.4477 -4.4924,0 0,-15.4477 -5.7721,0 z m -10.2571,-3.7199 4.4875,0 0,19.1676 -4.4875,0 0,-19.1676 z m -18.1226,12.9488 c -0.0295,1.1788 0.5992,3.0424 3.8095,3.0424 1.6889,0 3.4001,-0.3027 3.4001,-1.9679 0,-2.0845 -2.5298,-2.4691 -4.8425,-2.9902 -3.4322,-0.7644 -6.2874,-1.6428 -6.2874,-5.9136 0.002,-3.0946 2.0711,-5.6679 7.8111,-5.6679 5.2815,0 7.1825,3.0126 7.2367,5.8044 l -4.2434,-0.002 c -0.106,-1.0373 -0.8432,-2.0796 -3.2645,-2.0796 -2.2314,0 -2.939,0.8735 -2.939,1.8339 0,1.6701 2.1204,2.0299 3.7551,2.36 3.9993,0.7618 7.3748,1.7768 7.3748,5.9681 0,1.561 -0.4364,6.3826 -8.0577,6.3826 -7.0222,0 -8.2698,-4.2186 -8.2994,-6.7697 l 4.5466,0 z m -21.7692,-4.3527 4.1078,0 c 2.5322,0 2.8823,-1.479 2.8823,-2.4071 0.002,-1.8909 -1.112,-2.4691 -3.045,-2.4691 l -3.9451,0 0,4.8762 z m -4.4924,-8.5961 9.7443,0 c 1.933,0 6.4772,0.4913 6.4772,5.447 0,3.2335 -2.0687,4.3552 -3.3212,4.7919 l 0,0.0571 c 2.6432,0.7643 2.6974,3.2583 2.7196,4.653 0.0567,2.4394 0.0542,3.2359 0.7372,4.2186 l -4.5713,0 c -0.8161,-1.2035 -0.5178,-1.9455 -0.7619,-4.8738 -0.1898,-2.3004 -2.5618,-2.1912 -3.0771,-2.1912 l -3.4544,0 0,7.065 -4.4924,0 0,-19.1676 z m -7.4808,7.611 0,3.5337 -9.3078,0 0,4.2981 10.8291,0 0,3.7248 -15.3166,0 0,-19.1676 15.0479,0 0,3.7199 -10.5604,0 0,3.8911 9.3078,0 z m -23.8083,-7.611 4.9781,0 -6.4772,19.1676 -4.7612,0 -6.4477,-19.1676 5.1434,0 3.8612,13.6908 3.7034,-13.6908 z m -22.3684,0 4.49,0 0,19.1676 -4.49,0 0,-19.1676 z m -19.5945,7.1692 0,11.9984 -4.4899,0 0,-19.1676 4.5441,0 7.5129,11.909 0.0813,0 0,-11.909 4.49,0 0,19.1676 -4.5713,0 -7.5129,-11.9984 -0.0542,0 z m -23.7023,-7.1692 0,11.172 c 0,3.1764 0.9542,4.8192 3.7552,4.8192 2.7541,0 3.7552,-1.5361 3.7552,-4.8167 l 0,-11.1745 4.4949,0 0,11.909 c 0,1.9456 -0.2762,7.8095 -8.2501,7.8095 -8.0257,0 -8.2427,-5.7249 -8.2427,-7.807 l 0,-11.9115 4.4875,0 z m -30.934,7.611 0,3.5337 -9.3103,0 0,4.2981 10.8316,0 0,3.7248 -15.3216,0 0,-19.1676 15.0503,0 0,3.7199 -10.5603,0 0,3.8911 9.3103,0 z m -35.4881,-3.8911 0,-3.7199 16.002,0 0,3.7199 -5.74,0 0,15.4477 -4.49,0 0,-15.4477 -5.772,0 z m -8.546,8.6011 -2.4459,-7.3132 -2.5026,7.3132 4.9485,0 z m -0.1874,-12.321 7.1553,19.1676 -4.7611,0 -1.223,-3.5883 -6.9137,0 -1.1958,3.5883 -4.739,0 7.1331,-19.1676 4.5442,0 z m -29.2796,3.7199 0,-3.7199 15.9996,0 0,3.7199 -5.7425,0 0,15.4477 -4.4874,0 0,-15.4477 -5.7697,0 z m -16.4335,9.2289 c -0.0296,1.1788 0.5942,3.0424 3.8069,3.0424 1.689,0 3.4002,-0.3027 3.4002,-1.9679 0,-2.0845 -2.5273,-2.4691 -4.8426,-2.9902 -3.4322,-0.7644 -6.2849,-1.6428 -6.2849,-5.9136 0,-3.0946 2.0687,-5.6679 7.8062,-5.6679 5.2815,0 7.1849,3.0126 7.2392,5.8044 l -4.2409,-0.002 c -0.111,-1.0373 -0.8458,-2.0796 -3.272,-2.0796 -2.2289,0 -2.9365,0.8735 -2.9365,1.8339 0.002,1.6701 2.1204,2.0299 3.7576,2.36 4.0018,0.7618 7.3748,1.7768 7.3748,5.9681 0,1.561 -0.4389,6.3826 -8.0578,6.3826 -7.0172,0 -8.2722,-4.2186 -8.2994,-6.7697 l 4.5492,0 z m -44.1426,6.2188 -4.8672,0 -5.0323,-19.1676 4.7291,0 3.0771,13.9911 3.3212,-13.9911 4.0807,0 3.3212,13.9911 3.0747,-13.9911 4.734,0 -5.0348,19.1676 -4.8697,0 -3.2645,-14.1598 -3.2695,14.1598 z m -18.9879,-9.5838 c 0,-1.7272 -0.1924,-6.4099 -4.7908,-6.4099 -2.4755,0 -4.7612,1.345 -4.7612,6.4099 0,5.0128 2.2857,6.4074 4.7612,6.4074 4.5689,0 4.7883,-4.7919 4.7908,-6.4074 z m -14.4216,0 c 0,-4.4643 2.1204,-10.1322 9.6308,-10.1322 6.5611,0 9.6308,4.3253 9.6308,10.1322 0,5.8044 -3.0697,10.1347 -9.6308,10.1347 -7.5104,0 -9.6308,-5.6703 -9.6308,-10.1347 z m -5.1705,2.8191 c -0.3033,2.8761 -1.9059,7.3156 -8.6544,7.3156 -4.8697,0 -9.335,-2.2483 -9.335,-9.7798 0.002,-10.105 7.3477,-10.4871 9.1698,-10.4871 6.7509,0 8.4646,4.2434 8.6002,7.065 l -4.4111,0 c -0.4043,-3.2087 -2.9366,-3.3427 -3.9697,-3.3427 -1.006,0 -4.5466,0.1911 -4.5466,6.601 0,3.6156 1.6322,6.2163 4.6798,6.2163 2.944,0 3.8119,-2.1639 4.0042,-3.5883 l 4.4628,0 z m -35.2119,0.5459 c -0.0272,1.1788 0.5966,3.0424 3.8069,3.0424 1.6865,0 3.4026,-0.3027 3.4026,-1.9679 0,-2.0845 -2.5322,-2.4691 -4.845,-2.9902 -3.4272,-0.7644 -6.2874,-1.6428 -6.2874,-5.9136 0.002,-3.0946 2.0712,-5.6679 7.8137,-5.6679 5.2764,0 7.1824,3.0126 7.2391,5.8044 l -4.2458,-0.002 c -0.111,-1.0373 -0.8458,-2.0796 -3.2646,-2.0796 -2.2338,0 -2.944,0.8735 -2.944,1.8339 0,1.6701 2.1254,2.0299 3.7602,2.36 3.9968,0.7618 7.3723,1.7768 7.3723,5.9681 0,1.561 -0.434,6.3826 -8.0553,6.3826 -7.0197,0 -8.2723,-4.2186 -8.2969,-6.7697 l 4.5442,0 z m -14.8359,-3.365 c 0,-1.7272 -0.1873,-6.4099 -4.7858,-6.4099 -2.478,0 -4.7612,1.345 -4.7612,6.4099 0,5.0128 2.2832,6.4074 4.7612,6.4074 4.5713,0 4.7858,-4.7919 4.7858,-6.4074 z m -14.4191,0 c 0,-4.4643 2.1229,-10.1322 9.6333,-10.1322 6.5611,0 9.6333,4.3253 9.6333,10.1322 0,5.8044 -3.0747,10.1347 -9.6333,10.1347 -7.5104,0 -9.6357,-5.6703 -9.6333,-10.1347 z m -23.6998,-4.107 -0.0863,0 0,13.6908 -4.4875,0 0,-19.1676 6.3121,0 4.5466,13.1722 4.5442,-13.1722 6.3146,0 0,19.1676 -4.49,0 0,-13.6908 -0.0838,0 -4.7587,13.6908 -3.05,0 -4.7612,-13.6908 z" />
  <path
     id="path6"
     style="fill:#950a2a;fill-rule:evenodd"
     d="m 332.046,265.6433 c -15.959,0 -21.483,2.4518 -26.4437,7.3454 -4.9606,4.8962 -7.4397,10.4921 -7.4397,16.7854 0.002,6.2982 2.2607,11.8743 6.802,16.7357 4.5388,4.8614 10.2489,7.2908 17.1427,7.2908 5.2038,0 7.8045,1.8513 7.8045,5.5488 0,1.3724 -0.5062,2.5536 -1.5262,3.5462 -1.0199,0.9902 -2.1937,1.4889 -3.5238,1.4889 l -27.0516,0 0,18.6987 28.7292,0 c 6.3602,0 11.8842,-2.1912 16.5669,-6.5861 4.9632,-4.6703 7.4447,-10.4871 7.4447,-17.4554 0.002,-7.0352 -2.4592,-12.857 -7.3851,-17.4578 -4.5711,-4.3204 -10.0181,-6.4769 -16.3486,-6.4769 -5.3478,-0.003 -8.0155,-1.8835 -8.0155,-5.6481 0,-1.3921 0.541,-2.5932 1.6279,-3.6007 1.082,-1.0125 2.2905,-1.5138 3.6256,-1.5138 l 57.3913,0 0,58.7388 20.6392,0 0,-58.7388 36.7322,0 20.5598,-18.7011 -127.3318,0 z m 451.0974,0 0,78.8097 -53.4505,-48.0879 0,46.7181 -20.6393,0 0,-61.533 17.706,-15.9069 35.7396,32.4689 0,-32.4689 20.6442,0 z m -86.7805,-1.9381 0,79.4251 -20.6417,0 0,-60.7761 20.6417,-18.649 z m -46.0406,1.9133 28.2974,0 -38.6505,36.8414 17.0707,15.5966 0,26.7911 -32.1909,-28.7441 -9.3307,8.4845 0,18.5423 -20.6393,0 0,-60.59 20.6393,-18.6614 0,33.4739 34.804,-31.7343 z m -67.1339,0.0248 0,78.8097 -53.4531,-48.0879 0,46.7181 -20.6342,0 0,-61.533 17.706,-15.9069 35.742,32.4689 0,-32.4689 20.6393,0 z m -86.8972,0 0,77.4399 -20.6417,0 0,-10.5839 -36.8712,0 20.7137,-18.8748 16.1575,0 0,-20.4606 -57.4087,51.6365 0,-27.2898 57.4087,-51.8673 20.6417,0 z" />
  <path
     id="path8"
     style="fill:#0a2957;fill-rule:evenodd"
     d="m 460.564,126.5364 c 2.7074,0.2779 5.4644,0.6874 8.2289,1.1589 l 41.137,-6.1668 1.2532,-8.4646 c -26.8034,-12.8347 -59.0266,-14.7529 -87.8575,-12.7503 -10.2539,0.7097 -20.4879,1.9555 -30.64,3.6529 l -39.1046,0 c 0,0 -6.3578,8.7649 -17.8971,22.7684 l 0,-22.7684 -53.2594,-43.8792 -30.1784,68.9554 0,2.0622 -47.3955,-13.3012 -28.8756,13.3012 0,75.3182 c -32.0693,25.7711 -60.8431,55.8204 -82.5246,90.3168 -15.9143,25.2946 -27.5008,53.0907 -28.4041,83.2244 l 1.3773,14.7331 c 0,0 1.2036,11.5517 9.7352,26.5156 8.5316,14.9663 17.5596,21.7633 17.5596,21.7633 16.1451,13.8919 39.0252,21.3738 59.6396,23.8951 27.2799,3.3302 55.1057,1.886 82.1673,-2.9829 52.0534,-9.3381 102.268,-29.1411 148.3011,-55.5276 l 11.7949,-7.5216 -39.4024,0 -13.5816,7.5216 c -6.6183,3.437 -13.2888,6.7424 -20.0213,9.9114 -51.9914,24.446 -110.0825,41.5589 -168.052,37.8737 -19.5498,-1.2408 -40.6605,-6.7771 -57.029,-18.1353 0,0 -13.0729,-6.6283 -19.5721,-17.9963 -6.4968,-11.3681 -6.2511,-26.0119 -6.2511,-26.0119 l 0.1042,-13.7901 c 5.122,-41.9683 30.0519,-78.6161 58.178,-108.9806 14.1946,-15.3163 29.6026,-29.6176 45.9785,-42.8344 l 0.002,176.4322 29.5034,0 -0.6278,-268.3074 47.3955,13.2392 0,255.0682 29.9302,0 0.2482,-315.5242 53.2594,43.2165 0,127.5403 18.1552,0 -0.2581,-139.6801 43.0007,0 0,139.6801 9.2091,0 0,-133.0643 c 18.1552,-2.0175 36.4692,-2.3401 54.7732,-0.4615 z m 100.0421,52.443 c -0.4765,-3.7373 -1.4369,-7.3603 -2.5486,-10.9413 l -29.3198,-12.9686 -4.3204,4.6281 c 0.4591,0.6055 0.9182,1.2234 1.3872,1.8289 0.0943,0.1712 0.1886,0.3474 0.2879,0.5261 4.4395,10.9661 8.6383,20.1504 7.7946,32.4763 -1.3078,19.4034 -7.3678,37.8291 -16.1774,55.0512 l 28.8036,0.2705 c 10.6063,-22.2399 17.2072,-46.5965 14.0929,-70.8712 z" />
  <path
     id="path10"
     style="fill:#950a2a;fill-rule:evenodd"
     d="m 519.1936,91.0822 14.3733,31.4092 44.6856,-6.3206 -36.3401,21.8527 12.4426,24.1681 -26.7439,-11.8073 -28.5306,30.5357 11.3383,-38.4321 -72.4941,-4.303 76.1842,-12.9365 5.0847,-34.1662 z" />
</svg>
